# Blender 4.0.1
# www.blender.org
mtllib rock3.mtl
o rock3
v 0.187592 1.589309 -0.577350
v 0.794654 0.607062 -0.577350
v 0.187592 1.589309 0.577350
v 0.794654 0.607062 0.577350
v -0.794655 0.982247 -0.577350
v -0.187592 -0.000000 -0.577350
v -0.794655 0.982247 0.577350
v -0.187592 -0.000000 0.577350
v 0.303531 0.982247 -0.934172
v -0.303531 0.607062 -0.934172
v 0.303530 0.982247 0.934172
v -0.303531 0.607062 0.934172
v 0.607061 1.589309 0.000000
v 0.982246 0.982247 0.000000
v -0.982247 0.607062 -0.000000
v -0.607062 -0.000000 -0.000000
v -0.491124 1.589309 -0.356822
v -0.491124 1.589309 0.356822
v 0.491124 0.000000 -0.356822
v 0.491123 0.000000 0.356822
vn -0.2764 0.4472 -0.8507
vn 0.7236 0.4472 -0.5257
vn -0.0000 1.0000 -0.0000
vn 0.2764 -0.4472 -0.8507
vn 0.7236 0.4472 0.5257
vn -0.8944 0.4472 -0.0000
vn -0.7236 -0.4472 -0.5257
vn -0.2764 0.4472 0.8507
vn 0.8944 -0.4472 -0.0000
vn -0.0000 -1.0000 -0.0000
vn -0.7236 -0.4472 0.5257
vn 0.2764 -0.4472 0.8507
s 0
usemtl Material.019
f 9//1 17//1 1//1
f 9//1 10//1 5//1
f 13//2 9//2 1//2
f 13//2 14//2 2//2
f 17//3 13//3 1//3
f 17//3 18//3 3//3
f 2//4 10//4 9//4
f 2//4 19//4 6//4
f 13//5 4//5 14//5
f 3//5 11//5 4//5
f 5//6 18//6 17//6
f 5//6 15//6 7//6
f 6//7 5//7 10//7
f 6//7 16//7 15//7
f 12//8 18//8 7//8
f 12//8 11//8 3//8
f 20//9 14//9 4//9
f 20//9 19//9 2//9
f 16//10 20//10 8//10
f 16//10 6//10 19//10
f 12//11 16//11 8//11
f 12//11 7//11 15//11
f 20//12 12//12 8//12
f 20//12 4//12 11//12
f 9//1 5//1 17//1
f 13//2 2//2 9//2
f 17//3 3//3 13//3
f 2//4 6//4 10//4
f 13//5 3//5 4//5
f 5//6 7//6 18//6
f 6//7 15//7 5//7
f 12//8 3//8 18//8
f 20//9 2//9 14//9
f 16//10 19//10 20//10
f 12//11 15//11 16//11
f 20//12 11//12 12//12
