# Blender 4.0.1
# www.blender.org
mtllib rock1.mtl
o rock1
v -0.577350 0.000000 0.577350
v 0.577350 0.000000 0.577350
v 0.577350 0.000000 -0.577350
v -0.577350 0.000000 -0.577350
v -0.577350 1.154701 0.577350
v 0.577350 1.154701 0.577350
v 0.577350 1.154701 -0.577350
v -0.577350 1.154701 -0.577350
vn -0.0000 -1.0000 -0.0000
vn -0.0000 -0.0000 1.0000
vn -1.0000 -0.0000 -0.0000
vn 1.0000 -0.0000 -0.0000
vn -0.0000 -0.0000 -1.0000
vn -0.0000 1.0000 -0.0000
s 0
usemtl Material.017
f 4//1 2//1 1//1
f 2//2 5//2 1//2
f 5//3 4//3 1//3
f 6//4 3//4 7//4
f 3//5 8//5 7//5
f 8//6 6//6 7//6
f 4//1 3//1 2//1
f 2//2 6//2 5//2
f 5//3 8//3 4//3
f 6//4 2//4 3//4
f 3//5 4//5 8//5
f 8//6 5//6 6//6
