# Blender 4.0.1
# www.blender.org
mtllib rock2.mtl
o rock2
v 0.408239 0.000026 -0.707112
v -0.408277 1.154675 0.707133
v -0.408295 1.154700 -0.707081
v 0.408257 0.000001 0.707102
v 0.816459 1.154727 0.000010
v -0.816497 -0.000027 0.000010
vn 0.4714 0.3334 -0.8165
vn -0.0000 1.0000 -0.0000
vn 0.4714 0.3333 0.8165
vn 0.9428 -0.3333 -0.0000
vn -0.4714 -0.3333 -0.8165
vn -0.9428 0.3333 -0.0000
vn -0.4714 -0.3334 0.8165
vn -0.0000 -1.0000 -0.0000
s 0
usemtl Material.018
f 5//1 1//1 3//1
f 5//2 3//2 2//2
f 5//3 2//3 4//3
f 5//4 4//4 1//4
f 6//5 3//5 1//5
f 6//6 2//6 3//6
f 6//7 4//7 2//7
f 6//8 1//8 4//8
